<mxfile host="app.diagrams.net" modified="2022-10-18T14:32:58.698Z" agent="5.0 (Macintosh; Intel Mac OS X 10_15_7) AppleWebKit/537.36 (KHTML, like Gecko) Chrome/106.0.0.0 Safari/537.36" etag="0NFT8ZTRFLri_ibumrwu" version="20.3.7" type="github">
  <diagram id="zbZYlH1tf5Qj_QSA8il5" name="第 1 页">
    <mxGraphModel dx="1351" dy="796" grid="1" gridSize="10" guides="1" tooltips="1" connect="1" arrows="1" fold="1" page="1" pageScale="1" pageWidth="827" pageHeight="1169" math="0" shadow="0">
      <root>
        <mxCell id="0" />
        <mxCell id="1" parent="0" />
        <mxCell id="HpHhYa8Dk-qDjV2WvefI-2" value="" style="endArrow=classic;html=1;rounded=0;fontFamily=Times New Roman;fontSize=18;exitX=0.5;exitY=1;exitDx=0;exitDy=0;entryX=0.5;entryY=0;entryDx=0;entryDy=0;strokeWidth=4;fillColor=#1ba1e2;strokeColor=#006EAF;" parent="1" source="HpHhYa8Dk-qDjV2WvefI-4" target="HpHhYa8Dk-qDjV2WvefI-39" edge="1">
          <mxGeometry width="50" height="50" relative="1" as="geometry">
            <mxPoint x="300" y="120" as="sourcePoint" />
            <mxPoint x="350" y="70" as="targetPoint" />
          </mxGeometry>
        </mxCell>
        <mxCell id="HpHhYa8Dk-qDjV2WvefI-3" value="" style="rounded=0;whiteSpace=wrap;html=1;fontFamily=Times New Roman;fontSize=18;fillColor=#e8e8e0;" parent="1" vertex="1">
          <mxGeometry x="130" y="240" width="230" height="160" as="geometry" />
        </mxCell>
        <mxCell id="HpHhYa8Dk-qDjV2WvefI-4" value="&lt;h5&gt;&lt;font style=&quot;font-size: 18px;&quot; face=&quot;Times New Roman&quot;&gt;Input(256,256,3)&lt;/font&gt;&lt;/h5&gt;" style="rounded=0;whiteSpace=wrap;html=1;" parent="1" vertex="1">
          <mxGeometry x="150" y="90" width="190" height="40" as="geometry" />
        </mxCell>
        <mxCell id="HpHhYa8Dk-qDjV2WvefI-5" value="&lt;h5&gt;&lt;font face=&quot;Times New Roman&quot;&gt;&lt;span style=&quot;font-size: 18px;&quot;&gt;Conv(256,256,3)&lt;/span&gt;&lt;/font&gt;&lt;/h5&gt;" style="rounded=0;whiteSpace=wrap;html=1;fillColor=#fff2cc;strokeColor=#d6b656;" parent="1" vertex="1">
          <mxGeometry x="150" y="140" width="190" height="40" as="geometry" />
        </mxCell>
        <mxCell id="HpHhYa8Dk-qDjV2WvefI-7" value="&lt;font style=&quot;font-size: 18px;&quot; face=&quot;Times New Roman&quot;&gt;&lt;b&gt;LeakyRelu(128,128,64)&lt;/b&gt;&lt;/font&gt;" style="rounded=0;whiteSpace=wrap;html=1;fillColor=#767676;" parent="1" vertex="1">
          <mxGeometry x="150" y="190" width="190" height="40" as="geometry" />
        </mxCell>
        <mxCell id="HpHhYa8Dk-qDjV2WvefI-8" value="&lt;h5&gt;&lt;font face=&quot;Times New Roman&quot;&gt;&lt;span style=&quot;font-size: 18px;&quot;&gt;Conv(128,128,64)&lt;/span&gt;&lt;/font&gt;&lt;/h5&gt;" style="rounded=0;whiteSpace=wrap;html=1;fillColor=#fff2cc;strokeColor=#d6b656;" parent="1" vertex="1">
          <mxGeometry x="150" y="250" width="190" height="40" as="geometry" />
        </mxCell>
        <mxCell id="HpHhYa8Dk-qDjV2WvefI-9" value="&lt;h5&gt;&lt;font style=&quot;font-size: 18px;&quot; face=&quot;Times New Roman&quot;&gt;IntanceNorm(64,64,64)&lt;/font&gt;&lt;/h5&gt;" style="rounded=0;whiteSpace=wrap;html=1;fillColor=#C0A878;" parent="1" vertex="1">
          <mxGeometry x="150" y="300" width="190" height="40" as="geometry" />
        </mxCell>
        <mxCell id="HpHhYa8Dk-qDjV2WvefI-10" value="&lt;b style=&quot;font-family: &amp;quot;Times New Roman&amp;quot;; font-size: 18px;&quot;&gt;LeakyRelu(64,64,64)&lt;/b&gt;" style="rounded=0;whiteSpace=wrap;html=1;fillColor=#767676;" parent="1" vertex="1">
          <mxGeometry x="150" y="350" width="190" height="40" as="geometry" />
        </mxCell>
        <mxCell id="HpHhYa8Dk-qDjV2WvefI-11" value="" style="rounded=0;whiteSpace=wrap;html=1;fontFamily=Times New Roman;fontSize=18;fillColor=#E8E8E0;" parent="1" vertex="1">
          <mxGeometry x="130" y="450" width="230" height="100" as="geometry" />
        </mxCell>
        <mxCell id="HpHhYa8Dk-qDjV2WvefI-12" value="" style="rounded=0;whiteSpace=wrap;html=1;fillColor=#fff2cc;strokeColor=#d6b656;" parent="1" vertex="1">
          <mxGeometry x="150" y="490" width="190" height="15.5" as="geometry" />
        </mxCell>
        <mxCell id="HpHhYa8Dk-qDjV2WvefI-13" value="" style="rounded=0;whiteSpace=wrap;html=1;fillColor=#fff2cc;strokeColor=#d6b656;" parent="1" vertex="1">
          <mxGeometry x="150" y="460" width="190" height="15.5" as="geometry" />
        </mxCell>
        <mxCell id="HpHhYa8Dk-qDjV2WvefI-14" value="" style="rounded=0;whiteSpace=wrap;html=1;fillColor=#767676;" parent="1" vertex="1">
          <mxGeometry x="150" y="520" width="190" height="15.5" as="geometry" />
        </mxCell>
        <mxCell id="HpHhYa8Dk-qDjV2WvefI-37" value="&lt;h5&gt;&lt;font face=&quot;Times New Roman&quot;&gt;&lt;span style=&quot;font-size: 18px;&quot;&gt;Conv(16,16,512)&lt;/span&gt;&lt;/font&gt;&lt;/h5&gt;" style="rounded=0;whiteSpace=wrap;html=1;fillColor=#fff2cc;strokeColor=#d6b656;" parent="1" vertex="1">
          <mxGeometry x="150" y="560" width="190" height="40" as="geometry" />
        </mxCell>
        <mxCell id="HpHhYa8Dk-qDjV2WvefI-38" value="&lt;h5&gt;&lt;font face=&quot;Times New Roman&quot;&gt;&lt;span style=&quot;font-size: 18px;&quot;&gt;Dense(1024)&lt;/span&gt;&lt;/font&gt;&lt;/h5&gt;" style="rounded=0;whiteSpace=wrap;html=1;fillColor=#d5e8d4;strokeColor=#82b366;" parent="1" vertex="1">
          <mxGeometry x="150" y="710" width="190" height="40" as="geometry" />
        </mxCell>
        <mxCell id="HpHhYa8Dk-qDjV2WvefI-39" value="&lt;h5&gt;&lt;font style=&quot;font-size: 18px;&quot; face=&quot;Times New Roman&quot;&gt;Output&lt;/font&gt;&lt;/h5&gt;" style="rounded=0;whiteSpace=wrap;html=1;" parent="1" vertex="1">
          <mxGeometry x="150" y="780" width="190" height="40" as="geometry" />
        </mxCell>
        <mxCell id="HpHhYa8Dk-qDjV2WvefI-57" value="&lt;h5&gt;&lt;font face=&quot;Times New Roman&quot;&gt;&lt;span style=&quot;font-size: 18px;&quot;&gt;Flatten(16,16,1)&lt;/span&gt;&lt;/font&gt;&lt;/h5&gt;" style="rounded=0;whiteSpace=wrap;html=1;fillColor=#f5f5f5;strokeColor=#666666;fontColor=#333333;" parent="1" vertex="1">
          <mxGeometry x="150" y="610" width="190" height="40" as="geometry" />
        </mxCell>
        <mxCell id="HpHhYa8Dk-qDjV2WvefI-58" value="&lt;h5&gt;&lt;font face=&quot;Times New Roman&quot;&gt;&lt;span style=&quot;font-size: 18px;&quot;&gt;Dense(256)&lt;/span&gt;&lt;/font&gt;&lt;/h5&gt;" style="rounded=0;whiteSpace=wrap;html=1;fillColor=#d5e8d4;strokeColor=#82b366;" parent="1" vertex="1">
          <mxGeometry x="150" y="660" width="190" height="40" as="geometry" />
        </mxCell>
        <mxCell id="HpHhYa8Dk-qDjV2WvefI-59" value="" style="shape=curlyBracket;whiteSpace=wrap;html=1;rounded=1;fillColor=#404840;" parent="1" vertex="1">
          <mxGeometry x="90" y="240" width="20" height="310" as="geometry" />
        </mxCell>
        <mxCell id="HpHhYa8Dk-qDjV2WvefI-60" value="x4" style="text;html=1;strokeColor=none;fillColor=none;align=center;verticalAlign=middle;whiteSpace=wrap;rounded=0;horizontal=0;" parent="1" vertex="1">
          <mxGeometry x="70" y="385" width="10" height="20" as="geometry" />
        </mxCell>
      </root>
    </mxGraphModel>
  </diagram>
</mxfile>
